<svg xmlns:dc="http://purl.org/dc/elements/1.1/" xmlns:cc="http://web.resource.org/cc/" xmlns:rdf="http://www.w3.org/1999/02/22-rdf-syntax-ns#" xmlns:svg="http://www.w3.org/2000/svg" xmlns="http://www.w3.org/2000/svg" xmlns:sodipodi="http://sodipodi.sourceforge.net/DTD/sodipodi-0.dtd" xmlns:inkscape="http://www.inkscape.org/namespaces/inkscape" width="80" height="15" id="svg2279" sodipodi:version=".32" inkscape:version="0.45+devel" version="1.0" sodipodi:docname="by-nd.svg" inkscape:output_extension="org.inkscape.output.svg.inkscape"><defs id="defs2281"><clipPath clipPathUnits="userSpaceOnUse" id="clipPath3442"><path style="fill:#000;fill-opacity:1;stroke:none;stroke-width:.92243534;stroke-miterlimit:4;stroke-dasharray:none;stroke-opacity:1" id="rect3444" d="M171.99832 239.1203h20.614058v12.483703H171.99832z" /></clipPath></defs><sodipodi:namedview id="base" pagecolor="#ffffff" bordercolor="#999999" borderopacity="1" gridtolerance="1e4" guidetolerance="10" objecttolerance="10" inkscape:pageopacity="0" inkscape:pageshadow="2" inkscape:zoom="10.5125" inkscape:cx="40" inkscape:cy="7.5" inkscape:document-units="px" inkscape:current-layer="layer1" width="80" height="15" showborder="true" inkscape:showpageshadow="false" inkscape:window-width="935" inkscape:window-height="624" inkscape:window-x="50" inkscape:window-y="160" /><g inkscape:label="Layer 1" inkscape:groupmode="layer" id="layer1"><g id="BY-ND" transform="matrix(0.9875019,0,0,0.9333518,-323.90064,-384.81244)"><path style="fill:#fff;fill-opacity:1;stroke:#000;stroke-width:1.04161763;stroke-miterlimit:4;stroke-dasharray:none;stroke-opacity:1" id="rect3767" d="M328.5 412.86218h80v15h-80z" /><path d="M330 414.36218h77v12H330z" id="rect3769" style="fill:#000;fill-opacity:1;stroke:none;stroke-width:.92243534;stroke-miterlimit:4;stroke-dasharray:none;stroke-opacity:1" /><path style="fill:#abb1aa;fill-opacity:1;stroke:none;stroke-width:1;stroke-miterlimit:4;stroke-dasharray:none;stroke-opacity:.46913578" d="M329.99996 414.36218v12H350.33474C351.64339 424.61187 352.52652 422.5777 352.52652 420.36218 352.52652 418.16144 351.65859 416.10503 350.36599 414.36218H329.99996z" id="path3771" sodipodi:nodetypes="cccscc" /><g id="g3773" transform="matrix(0.9612533,0,0,0.9612533,164.83416,184.507)" clip-path="url(#clipPath3442)"><path id="path3775" cx="296.35416" ry="22.939548" cy="264.3577" type="arc" rx="22.939548" d="M190.06417 245.36206C190.06667 249.25405 186.91326 252.41072 183.02153 252.41323 179.12979 252.41572 175.97262 249.26256 175.97036 245.3706 175.97036 245.36783 175.97036 245.36507 175.97036 245.36206 175.9681 241.47007 179.12126 238.3134 183.013 238.31113 186.90524 238.30864 190.06191 241.46181 190.06417 245.3538 190.06417 245.35628 190.06417 245.35929 190.06417 245.36206z" style="opacity:1;fill:#fff" /><path d="M188.74576 239.62226C190.30843 241.18492 191.08988 243.09869 191.08988 245.36206 191.08988 247.62592 190.32197 249.51913 188.78615 251.04165 187.15627 252.64521 185.22995 253.44672 183.00722 253.44672 180.81132 253.44672 178.91837 252.65172 177.32887 251.06174 175.73912 249.47198 174.94436 247.57226 174.94436 245.36206 174.94436 243.15235 175.73912 241.23908 177.32887 239.62226 178.87799 238.0591 180.77094 237.27764 183.00722 237.27764 185.2706 237.27764 187.18312 238.05909 188.74576 239.62226zM178.38093 240.67355C177.05978 242.008 176.39945 243.57116 176.39945 245.36429 176.39945 247.15694 177.05326 248.70682 178.36062 250.01393 179.66822 251.32153 181.22487 251.97509 183.03105 251.97509 184.83724 251.97509 186.40716 251.31502 187.74161 249.99412 189.0086 248.76725 189.64234 247.22467 189.64234 245.36429 189.64234 243.51799 188.99831 241.95084 187.71101 240.66354 186.42396 239.37649 184.86406 238.7327 183.03105 238.7327 181.19804 238.73271 179.64767 239.37975 178.38093 240.67355zM181.85761 244.57559C181.65573 244.13545 181.35354 243.91525 180.95051 243.91525 180.23802 243.91525 179.8819 244.39501 179.8819 245.35404 179.8819 246.31328 180.23802 246.79255 180.95051 246.79255 181.421 246.79255 181.75705 246.55908 181.95869 246.09111L182.94629 246.61701C182.47555 247.45339 181.76934 247.87168 180.82763 247.87168 180.10136 247.87168 179.51953 247.64899 179.08265 247.20409 178.64502 246.7587 178.42684 246.14477 178.42684 245.36206 178.42684 244.59313 178.65204 243.98271 179.10271 243.53056 179.55338 243.07838 180.11463 242.8524 180.7875 242.8524 181.78288 242.8524 182.49561 243.24465 182.92647 244.02835L181.85761 244.57559zM186.50398 244.57559C186.30184 244.13545 186.00567 243.91525 185.61517 243.91525 184.88839 243.91525 184.52474 244.39501 184.52474 245.35404 184.52474 246.31328 184.88839 246.79255 185.61517 246.79255 186.08642 246.79255 186.41644 246.55908 186.6048 246.09111L187.61447 246.61701C187.14448 247.45339 186.43926 247.87168 185.49931 247.87168 184.77403 247.87168 184.19346 247.64899 183.75683 247.20409 183.32096 246.7587 183.10254 246.14477 183.10254 245.36206 183.10254 244.59313 183.32422 243.98271 183.76737 243.53056 184.21026 243.07838 184.77404 242.8524 185.4592 242.8524 186.45282 242.8524 187.16455 243.24465 187.5939 244.02835L186.50398 244.57559z" id="path3777" style="opacity:1" /></g><path id="text3779" d="M357.4197 419.68502C357.66518 419.68502 357.85131 419.63145 357.9781 419.52427 358.10488 419.41711 358.16827 419.25904 358.16828 419.05006 358.16827 418.84377 358.10488 418.68704 357.9781 418.57987 357.85131 418.47002 357.66518 418.4151 357.4197 418.4151H356.55784V419.68502H357.4197M357.4723 422.30927C357.78522 422.30927 358.0199 422.24363 358.17637 422.11235 358.33552 421.98107 358.4151 421.78281 358.4151 421.51758 358.4151 421.2577 358.33686 421.06346 358.18041 420.93485 358.02396 420.80358 357.78792 420.73794 357.4723 420.73794H356.55784V422.30927H357.4723M358.92089 420.1512C359.25538 420.24766 359.51434 420.42582 359.69779 420.6857 359.88121 420.94558 359.97293 421.2644 359.97294 421.64215 359.97293 422.22086 359.776 422.65221 359.38217 422.93619 358.98833 423.22019 358.38947 423.36218 357.5856 423.36218H355.00001V417.36219H357.33878C358.17771 417.36219 358.78466 417.48812 359.15962 417.73994 359.53727 417.99179 359.7261 418.39501 359.7261 418.94959 359.7261 419.24162 359.65732 419.49079 359.51975 419.69708 359.38217 419.90071 359.18255 420.05208 358.92089 420.1512M359.83746 417.36219H361.54096L362.91671 419.50016 364.29245 417.36219H366L363.69764 420.83439V423.36218H362.13982V420.83439L359.83746 417.36219M365.15837 420.4084H367.69946V421.57785H365.15837V420.4084M368.9174 417.36219H370.65732L372.85447 421.47739V417.36219H374.33138V423.36218H372.59146L370.3943 419.24698V423.36218H368.9174V417.36219M377.41872 418.53164V422.19273H377.97711C378.61373 422.19273 379.09929 422.03599 379.43379 421.72253 379.77098 421.40907 379.93957 420.95361 379.93957 420.35616 379.93957 419.76138 379.77232 419.3086 379.43783 418.99782 379.10333 418.68704 378.61643 418.53164 377.97711 418.53164H377.41872M375.86089 417.36219H377.50369C378.42085 417.36219 379.10333 417.42783 379.55113 417.5591 380.00162 417.68771 380.38736 417.9074 380.70838 418.21818 380.99161 418.48878 381.20202 418.8009 381.3396 419.15455 381.47717 419.5082 381.54596 419.90874 381.54597 420.35616 381.54596 420.80894 381.47717 421.21349 381.3396 421.56982 381.20202 421.92347 380.99161 422.23559 380.70838 422.5062 380.38466 422.81697 379.99622 423.038 379.54304 423.16928 379.08984 423.29788 378.41007 423.36218 377.50369 423.36218H375.86089V417.36219" style="font-size:8.25858784px;font-style:normal;font-weight:700;fill:#fff;fill-opacity:1;stroke:none;stroke-width:1px;stroke-linecap:butt;stroke-linejoin:miter;stroke-opacity:1;font-family:bitstream vera sans" /></g></g></svg>