<svg xmlns:dc="http://purl.org/dc/elements/1.1/" xmlns:cc="http://web.resource.org/cc/" xmlns:rdf="http://www.w3.org/1999/02/22-rdf-syntax-ns#" xmlns:svg="http://www.w3.org/2000/svg" xmlns="http://www.w3.org/2000/svg" xmlns:sodipodi="http://sodipodi.sourceforge.net/DTD/sodipodi-0.dtd" xmlns:inkscape="http://www.inkscape.org/namespaces/inkscape" width="80" height="15" id="svg2279" sodipodi:version=".32" inkscape:version="0.45+devel" version="1.0" sodipodi:docname="by-nc.svg" inkscape:output_extension="org.inkscape.output.svg.inkscape"><defs id="defs2281"><clipPath clipPathUnits="userSpaceOnUse" id="clipPath3442"><path style="fill:#000;fill-opacity:1;stroke:none;stroke-width:.92243534;stroke-miterlimit:4;stroke-dasharray:none;stroke-opacity:1" id="rect3444" d="M171.99832 239.1203h20.614058v12.483703H171.99832z" /></clipPath></defs><sodipodi:namedview id="base" pagecolor="#ffffff" bordercolor="#999999" borderopacity="1" gridtolerance="1e4" guidetolerance="10" objecttolerance="10" inkscape:pageopacity="0" inkscape:pageshadow="2" inkscape:zoom="10.5125" inkscape:cx="40" inkscape:cy="7.5" inkscape:document-units="px" inkscape:current-layer="layer1" width="80" height="15" showborder="true" inkscape:showpageshadow="false" inkscape:window-width="935" inkscape:window-height="624" inkscape:window-x="50" inkscape:window-y="160" /><g inkscape:label="Layer 1" inkscape:groupmode="layer" id="layer1"><g id="BY-NC" transform="matrix(0.9875019,0,0,0.9333518,-323.90064,-302.67749)"><g id="g3711" transform="translate(158,87)"><path style="fill:#fff;fill-opacity:1;stroke:#000;stroke-width:1.04161763;stroke-miterlimit:4;stroke-dasharray:none;stroke-opacity:1" id="rect3713" d="M170.5 237.86218h80v15h-80z" /><path d="M172 239.36218h77v12H172z" id="rect3715" style="fill:#000;fill-opacity:1;stroke:none;stroke-width:.92243534;stroke-miterlimit:4;stroke-dasharray:none;stroke-opacity:1" /><path style="fill:#abb1aa;fill-opacity:1;stroke:none;stroke-width:1;stroke-miterlimit:4;stroke-dasharray:none;stroke-opacity:.46913578" d="M171.99996 239.37505v12H192.33474C193.64339 249.62474 194.52652 247.59057 194.52652 245.37505 194.52652 243.17431 193.65859 241.1179 192.36599 239.37505H171.99996z" id="path3717" sodipodi:nodetypes="cccscc" /><g id="g3719" transform="matrix(0.9612533,0,0,0.9612533,6.8341566,9.5069994)" clip-path="url(#clipPath3442)"><path id="path3721" cx="296.35416" ry="22.939548" cy="264.3577" type="arc" rx="22.939548" d="M190.06417 245.36206C190.06667 249.25405 186.91326 252.41072 183.02153 252.41323 179.12979 252.41572 175.97262 249.26256 175.97036 245.3706 175.97036 245.36783 175.97036 245.36507 175.97036 245.36206 175.9681 241.47007 179.12126 238.3134 183.013 238.31113 186.90524 238.30864 190.06191 241.46181 190.06417 245.3538 190.06417 245.35628 190.06417 245.35929 190.06417 245.36206z" style="opacity:1;fill:#fff" /><path d="M188.74576 239.62226C190.30843 241.18492 191.08988 243.09869 191.08988 245.36206 191.08988 247.62592 190.32197 249.51913 188.78615 251.04165 187.15627 252.64521 185.22995 253.44672 183.00722 253.44672 180.81132 253.44672 178.91837 252.65172 177.32887 251.06174 175.73912 249.47198 174.94436 247.57226 174.94436 245.36206 174.94436 243.15235 175.73912 241.23908 177.32887 239.62226 178.87799 238.0591 180.77094 237.27764 183.00722 237.27764 185.2706 237.27764 187.18312 238.05909 188.74576 239.62226zM178.38093 240.67355C177.05978 242.008 176.39945 243.57116 176.39945 245.36429 176.39945 247.15694 177.05326 248.70682 178.36062 250.01393 179.66822 251.32153 181.22487 251.97509 183.03105 251.97509 184.83724 251.97509 186.40716 251.31502 187.74161 249.99412 189.0086 248.76725 189.64234 247.22467 189.64234 245.36429 189.64234 243.51799 188.99831 241.95084 187.71101 240.66354 186.42396 239.37649 184.86406 238.7327 183.03105 238.7327 181.19804 238.73271 179.64767 239.37975 178.38093 240.67355zM181.85761 244.57559C181.65573 244.13545 181.35354 243.91525 180.95051 243.91525 180.23802 243.91525 179.8819 244.39501 179.8819 245.35404 179.8819 246.31328 180.23802 246.79255 180.95051 246.79255 181.421 246.79255 181.75705 246.55908 181.95869 246.09111L182.94629 246.61701C182.47555 247.45339 181.76934 247.87168 180.82763 247.87168 180.10136 247.87168 179.51953 247.64899 179.08265 247.20409 178.64502 246.7587 178.42684 246.14477 178.42684 245.36206 178.42684 244.59313 178.65204 243.98271 179.10271 243.53056 179.55338 243.07838 180.11463 242.8524 180.7875 242.8524 181.78288 242.8524 182.49561 243.24465 182.92647 244.02835L181.85761 244.57559zM186.50398 244.57559C186.30184 244.13545 186.00567 243.91525 185.61517 243.91525 184.88839 243.91525 184.52474 244.39501 184.52474 245.35404 184.52474 246.31328 184.88839 246.79255 185.61517 246.79255 186.08642 246.79255 186.41644 246.55908 186.6048 246.09111L187.61447 246.61701C187.14448 247.45339 186.43926 247.87168 185.49931 247.87168 184.77403 247.87168 184.19346 247.64899 183.75683 247.20409 183.32096 246.7587 183.10254 246.14477 183.10254 245.36206 183.10254 244.59313 183.32422 243.98271 183.76737 243.53056 184.21026 243.07838 184.77404 242.8524 185.4592 242.8524 186.45282 242.8524 187.16455 243.24465 187.5939 244.02835L186.50398 244.57559z" id="path3723" style="opacity:1" /></g></g><path id="text3725" d="M357.4197 331.68502C357.66518 331.68502 357.85131 331.63144 357.9781 331.52427 358.10488 331.4171 358.16827 331.25904 358.16828 331.05005 358.16827 330.84377 358.10488 330.68703 357.9781 330.57986 357.85131 330.47002 357.66518 330.41509 357.4197 330.41509H356.55784V331.68502H357.4197M357.4723 334.30926C357.78522 334.30926 358.0199 334.24363 358.17637 334.11235 358.33552 333.98107 358.4151 333.7828 358.4151 333.51757 358.4151 333.25769 358.33686 333.06346 358.18041 332.93485 358.02396 332.80358 357.78792 332.73793 357.4723 332.73793H356.55784V334.30926H357.4723M358.92089 332.15119C359.25538 332.24765 359.51434 332.42581 359.69779 332.68569 359.88121 332.94557 359.97293 333.26439 359.97294 333.64215 359.97293 334.22085 359.776 334.6522 359.38217 334.93619 358.98833 335.22018 358.38947 335.36218 357.5856 335.36218H355.00001v-6H357.33878C358.17771 329.36218 358.78466 329.48811 359.15962 329.73994 359.53727 329.99178 359.7261 330.395 359.7261 330.94958 359.7261 331.24162 359.65732 331.49078 359.51975 331.69708 359.38217 331.9007 359.18255 332.05207 358.92089 332.15119M359.83746 329.36218H361.54096L362.91671 331.50015 364.29245 329.36218H366L363.69764 332.83438V335.36218H362.13982V332.83438L359.83746 329.36218M365.15837 332.40839H367.69946V333.57785H365.15837V332.40839M368.9174 329.36218H370.65732L372.85447 333.47738V329.36218H374.33138v6H372.59146L370.3943 331.24698V335.36218H368.9174v-6M380.65173 335.03264C380.36579 335.17999 380.0677 335.29118 379.75749 335.36619 379.44727 335.44122 379.12357 335.47872 378.78638 335.47872 377.78019 335.47872 376.98307 335.20009 376.395 334.64282 375.80693 334.08288 375.5129 333.32467 375.5129 332.36821 375.5129 331.40907 375.80693 330.65087 376.395 330.0936 376.98307 329.53365 377.78019 329.25368 378.78638 329.25367 379.12357 329.25368 379.44727 329.29118 379.75749 329.3662 380.0677 329.44122 380.36579 329.55241 380.65173 329.69975V330.94155C380.36309 330.74597 380.0785 330.60263 379.79796 330.51154 379.5174 330.42046 379.22203 330.37491 378.91181 330.3749 378.35611 330.37491 377.91911 330.55174 377.6008 330.90538 377.28249 331.25904 377.12333 331.74665 377.12333 332.36821 377.12333 332.9871 377.28249 333.47336 377.6008 333.82701 377.91911 334.18066 378.35611 334.35749 378.91181 334.35749 379.22203 334.35749 379.5174 334.31194 379.79796 334.22085 380.0785 334.12976 380.36309 333.98643 380.65173 333.79085V335.03264" style="font-size:8.25858784px;font-style:normal;font-weight:700;fill:#fff;fill-opacity:1;stroke:none;stroke-width:1px;stroke-linecap:butt;stroke-linejoin:miter;stroke-opacity:1;font-family:bitstream vera sans" /></g></g></svg>