<svg xmlns:dc="http://purl.org/dc/elements/1.1/" xmlns:cc="http://web.resource.org/cc/" xmlns:rdf="http://www.w3.org/1999/02/22-rdf-syntax-ns#" xmlns:svg="http://www.w3.org/2000/svg" xmlns="http://www.w3.org/2000/svg" xmlns:sodipodi="http://sodipodi.sourceforge.net/DTD/sodipodi-0.dtd" xmlns:inkscape="http://www.inkscape.org/namespaces/inkscape" width="80" height="15" id="svg2279" sodipodi:version=".32" inkscape:version="0.45+devel" version="1.0" sodipodi:docname="by-nc-sa.svg" inkscape:output_extension="org.inkscape.output.svg.inkscape"><defs id="defs2281"><clipPath clipPathUnits="userSpaceOnUse" id="clipPath3442"><path style="fill:#000;fill-opacity:1;stroke:none;stroke-width:.92243534;stroke-miterlimit:4;stroke-dasharray:none;stroke-opacity:1" id="rect3444" d="M171.99832 239.1203h20.614058v12.483703H171.99832z" /></clipPath></defs><sodipodi:namedview id="base" pagecolor="#ffffff" bordercolor="#999999" borderopacity="1" gridtolerance="1e4" guidetolerance="10" objecttolerance="10" inkscape:pageopacity="0" inkscape:pageshadow="2" inkscape:zoom="10.5125" inkscape:cx="40" inkscape:cy="7.5" inkscape:document-units="px" inkscape:current-layer="layer1" width="80" height="15" showborder="true" inkscape:showpageshadow="false" inkscape:window-width="935" inkscape:window-height="624" inkscape:window-x="50" inkscape:window-y="160" /><g inkscape:label="Layer 1" inkscape:groupmode="layer" id="layer1"><g id="BY-NC-SA" transform="matrix(0.9875019,0,0,0.9333518,-323.90064,-331.6114)"><g transform="translate(158,118)" id="g3729"><path d="M170.5 237.86218h80v15h-80z" id="rect3731" style="fill:#fff;fill-opacity:1;stroke:#000;stroke-width:1.04161763;stroke-miterlimit:4;stroke-dasharray:none;stroke-opacity:1" /><path style="fill:#000;fill-opacity:1;stroke:none;stroke-width:.92243534;stroke-miterlimit:4;stroke-dasharray:none;stroke-opacity:1" id="rect3733" d="M172 239.36218h77v12H172z" /><path sodipodi:nodetypes="cccscc" id="path3735" d="M171.99996 239.37505v12H192.33474C193.64339 249.62474 194.52652 247.59057 194.52652 245.37505 194.52652 243.17431 193.65859 241.1179 192.36599 239.37505H171.99996z" style="fill:#abb1aa;fill-opacity:1;stroke:none;stroke-width:1;stroke-miterlimit:4;stroke-dasharray:none;stroke-opacity:.46913578" /><g clip-path="url(#clipPath3442)" transform="matrix(0.9612533,0,0,0.9612533,6.8341566,9.5069994)" id="g3737"><path style="opacity:1;fill:#fff" d="M190.06417 245.36206C190.06667 249.25405 186.91326 252.41072 183.02153 252.41323 179.12979 252.41572 175.97262 249.26256 175.97036 245.3706 175.97036 245.36783 175.97036 245.36507 175.97036 245.36206 175.9681 241.47007 179.12126 238.3134 183.013 238.31113 186.90524 238.30864 190.06191 241.46181 190.06417 245.3538 190.06417 245.35628 190.06417 245.35929 190.06417 245.36206z" rx="22.939548" type="arc" cy="264.3577" ry="22.939548" cx="296.35416" id="path3739" /><path style="opacity:1" id="path3741" d="M188.74576 239.62226C190.30843 241.18492 191.08988 243.09869 191.08988 245.36206 191.08988 247.62592 190.32197 249.51913 188.78615 251.04165 187.15627 252.64521 185.22995 253.44672 183.00722 253.44672 180.81132 253.44672 178.91837 252.65172 177.32887 251.06174 175.73912 249.47198 174.94436 247.57226 174.94436 245.36206 174.94436 243.15235 175.73912 241.23908 177.32887 239.62226 178.87799 238.0591 180.77094 237.27764 183.00722 237.27764 185.2706 237.27764 187.18312 238.05909 188.74576 239.62226zM178.38093 240.67355C177.05978 242.008 176.39945 243.57116 176.39945 245.36429 176.39945 247.15694 177.05326 248.70682 178.36062 250.01393 179.66822 251.32153 181.22487 251.97509 183.03105 251.97509 184.83724 251.97509 186.40716 251.31502 187.74161 249.99412 189.0086 248.76725 189.64234 247.22467 189.64234 245.36429 189.64234 243.51799 188.99831 241.95084 187.71101 240.66354 186.42396 239.37649 184.86406 238.7327 183.03105 238.7327 181.19804 238.73271 179.64767 239.37975 178.38093 240.67355zM181.85761 244.57559C181.65573 244.13545 181.35354 243.91525 180.95051 243.91525 180.23802 243.91525 179.8819 244.39501 179.8819 245.35404 179.8819 246.31328 180.23802 246.79255 180.95051 246.79255 181.421 246.79255 181.75705 246.55908 181.95869 246.09111L182.94629 246.61701C182.47555 247.45339 181.76934 247.87168 180.82763 247.87168 180.10136 247.87168 179.51953 247.64899 179.08265 247.20409 178.64502 246.7587 178.42684 246.14477 178.42684 245.36206 178.42684 244.59313 178.65204 243.98271 179.10271 243.53056 179.55338 243.07838 180.11463 242.8524 180.7875 242.8524 181.78288 242.8524 182.49561 243.24465 182.92647 244.02835L181.85761 244.57559zM186.50398 244.57559C186.30184 244.13545 186.00567 243.91525 185.61517 243.91525 184.88839 243.91525 184.52474 244.39501 184.52474 245.35404 184.52474 246.31328 184.88839 246.79255 185.61517 246.79255 186.08642 246.79255 186.41644 246.55908 186.6048 246.09111L187.61447 246.61701C187.14448 247.45339 186.43926 247.87168 185.49931 247.87168 184.77403 247.87168 184.19346 247.64899 183.75683 247.20409 183.32096 246.7587 183.10254 246.14477 183.10254 245.36206 183.10254 244.59313 183.32422 243.98271 183.76737 243.53056 184.21026 243.07838 184.77404 242.8524 185.4592 242.8524 186.45282 242.8524 187.16455 243.24465 187.5939 244.02835L186.50398 244.57559z" /></g></g><path id="text3743" d="M357.4197 362.68502C357.66518 362.68502 357.85131 362.63144 357.9781 362.52427 358.10488 362.41711 358.16827 362.25904 358.16828 362.05005 358.16827 361.84377 358.10488 361.68704 357.9781 361.57986 357.85131 361.47002 357.66518 361.4151 357.4197 361.4151H356.55784V362.68502H357.4197M357.4723 365.30926C357.78522 365.30926 358.0199 365.24363 358.17637 365.11235 358.33552 364.98107 358.4151 364.78281 358.4151 364.51758 358.4151 364.2577 358.33686 364.06346 358.18041 363.93485 358.02396 363.80358 357.78792 363.73793 357.4723 363.73793H356.55784V365.30926H357.4723M358.92089 363.15119C359.25538 363.24765 359.51434 363.42581 359.69779 363.68569 359.88121 363.94557 359.97293 364.26439 359.97294 364.64215 359.97293 365.22086 359.776 365.6522 359.38217 365.93619 358.98833 366.22019 358.38947 366.36218 357.5856 366.36218H355.00001v-6H357.33878C358.17771 360.36218 358.78466 360.48811 359.15962 360.73994 359.53727 360.99179 359.7261 361.39501 359.7261 361.94959 359.7261 362.24162 359.65732 362.49078 359.51975 362.69708 359.38217 362.9007 359.18255 363.05207 358.92089 363.15119M359.83746 360.36218H361.54096L362.91671 362.50016 364.29245 360.36218H366L363.69764 363.83438V366.36218H362.13982V363.83438L359.83746 360.36218M365.15837 363.40839H367.69946V364.57785H365.15837V363.40839M368.9174 360.36218H370.65732L372.85447 364.47738V360.36218H374.33138v6H372.59146L370.3943 362.24698V366.36218H368.9174v-6M380.65173 366.03264C380.36579 366.17999 380.0677 366.29118 379.75749 366.3662 379.44727 366.44122 379.12357 366.47872 378.78638 366.47872 377.78019 366.47872 376.98307 366.20009 376.395 365.64282 375.80693 365.08288 375.5129 364.32468 375.5129 363.36821 375.5129 362.40907 375.80693 361.65087 376.395 361.0936 376.98307 360.53366 377.78019 360.25368 378.78638 360.25367 379.12357 360.25368 379.44727 360.29119 379.75749 360.3662 380.0677 360.44122 380.36579 360.55241 380.65173 360.69976V361.94156C380.36309 361.74597 380.0785 361.60265 379.79796 361.51155 379.5174 361.42046 379.22203 361.37492 378.91181 361.37491 378.35611 361.37492 377.91911 361.55174 377.6008 361.90538 377.28249 362.25904 377.12333 362.74665 377.12333 363.36821 377.12333 363.9871 377.28249 364.47337 377.6008 364.82702 377.91911 365.18067 378.35611 365.35749 378.91181 365.35749 379.22203 365.35749 379.5174 365.31195 379.79796 365.22086 380.0785 365.12976 380.36309 364.98643 380.65173 364.79085V366.03264M381.82921 363.40839H384.3703V364.57785H381.82921V363.40839M389.79236 360.55107V361.82099C389.46056 361.67364 389.13686 361.56245 388.82125 361.48743 388.50563 361.41242 388.20756 361.37492 387.92701 361.37491 387.55475 361.37492 387.2796 361.42581 387.10156 361.52762 386.92352 361.62943 386.8345 361.7875 386.83451 362.00183 386.8345 362.16259 386.89385 362.28851 387.01255 362.3796 387.13393 362.46801 387.35244 362.54437 387.66804 362.60866L388.33165 362.74129C389.00333 362.87525 389.4808 363.07886 389.76405 363.35214 390.04728 363.62541 390.1889 364.01389 390.18891 364.51758 390.1889 365.17933 389.99063 365.67229 389.5941 365.99647 389.20025 366.31797 388.59735 366.47872 387.78539 366.47872 387.40234 366.47872 387.01794 366.44255 386.63219 366.37022 386.24644 366.29788 385.86069 366.19072 385.47494 366.04871V364.74262C385.86069 364.94624 386.23295 365.10029 386.59173 365.20478 386.9532 365.30658 387.30118 365.35749 387.63567 365.35749 387.97556 365.35749 388.23588 365.30123 388.41662 365.18871 388.59735 365.07618 388.68771 364.91543 388.68772 364.70646 388.68771 364.51891 388.62567 364.37424 388.50159 364.27242 388.38019 364.17062 388.13607 364.07954 387.76921 363.99915L387.1663 363.86653C386.56205 363.73793 386.11965 363.53298 385.83911 363.25167 385.56127 362.97035 385.42234 362.59125 385.42234 362.11435 385.42234 361.51691 385.61656 361.05743 386.00501 360.73592 386.39346 360.41443 386.95185 360.25368 387.68019 360.25367 388.01198 360.25368 388.35322 360.27914 388.70391 360.33003 389.05459 360.37826 389.4174 360.45194 389.79236 360.55107M395.22657 365.26908H392.79069L392.40629 366.36218H390.84037L393.07798 360.36218H394.93524L397.17286 366.36218H395.60693L395.22657 365.26908M393.17914 364.15588H394.83409L394.00863 361.76875 393.17914 364.15588" style="font-size:8.25858784px;font-style:normal;font-weight:700;fill:#fff;fill-opacity:1;stroke:none;stroke-width:1px;stroke-linecap:butt;stroke-linejoin:miter;stroke-opacity:1;font-family:bitstream vera sans" /></g></g></svg>